<svg xmlns="http://www.w3.org/2000/svg" width="490" height="103" viewBox="0 0 490 103" version="1.1"><path d="M 43.250 0.689 C 44.212 0.941, 45.788 0.941, 46.750 0.689 C 47.712 0.438, 46.925 0.232, 45 0.232 C 43.075 0.232, 42.288 0.438, 43.250 0.689 M 56.250 0.689 C 57.212 0.941, 58.788 0.941, 59.750 0.689 C 60.712 0.438, 59.925 0.232, 58 0.232 C 56.075 0.232, 55.288 0.438, 56.250 0.689 M 72.083 4.365 C 72.313 4.565, 73.625 5.265, 75 5.920 C 77.357 7.042, 77.389 7.022, 75.559 5.555 C 73.966 4.279, 70.711 3.164, 72.083 4.365 M 25.583 6.866 C 25.288 7.343, 26.049 8.580, 27.274 9.616 C 29.494 11.495, 29.495 11.495, 27.748 9.419 C 26.784 8.274, 26.297 7.037, 26.664 6.669 C 27.032 6.301, 27.060 6, 26.726 6 C 26.391 6, 25.877 6.390, 25.583 6.866 M 28 14.500 C 30.987 17.525, 33.657 20, 33.932 20 C 34.207 20, 31.987 17.525, 29 14.500 C 26.013 11.475, 23.343 9, 23.068 9 C 22.793 9, 25.013 11.475, 28 14.500 M 87.500 15 C 89.648 17.200, 91.631 19, 91.906 19 C 92.181 19, 90.648 17.200, 88.500 15 C 86.352 12.800, 84.369 11, 84.094 11 C 83.819 11, 85.352 12.800, 87.500 15 M 14.924 14.750 L 12.500 17.500 15.250 15.076 C 16.762 13.742, 18 12.505, 18 12.326 C 18 11.541, 17.190 12.180, 14.924 14.750 M 34.500 18 C 36.648 20.200, 38.631 22, 38.906 22 C 39.181 22, 37.648 20.200, 35.500 18 C 33.352 15.800, 31.369 14, 31.094 14 C 30.819 14, 32.352 15.800, 34.500 18 M 10.459 20.067 C 10.096 20.653, 9.957 21.249, 10.150 21.390 C 10.342 21.532, 12.075 22.664, 14 23.906 L 17.500 26.165 14.500 23.559 C 12.850 22.125, 11.613 20.513, 11.750 19.976 C 12.083 18.676, 11.284 18.732, 10.459 20.067 M 455.234 49.250 L 455.467 77.500 455.749 49.750 L 456.032 22 460.516 22 L 465 22 465 38.559 C 465 47.666, 465.337 54.910, 465.750 54.656 C 466.163 54.402, 466.367 46.726, 466.203 37.597 L 465.907 21 460.453 21 L 455 21 455.234 49.250 M 97.202 28.478 C 98.398 30.941, 99.549 32.785, 99.758 32.575 C 100.211 32.123, 96.170 24, 95.493 24 C 95.236 24, 96.005 26.015, 97.202 28.478 M 142.762 24.707 C 144.006 24.946, 145.806 24.937, 146.762 24.687 C 147.718 24.437, 146.700 24.241, 144.500 24.252 C 142.300 24.263, 141.518 24.468, 142.762 24.707 M 50.250 25.689 C 51.212 25.941, 52.788 25.941, 53.750 25.689 C 54.712 25.438, 53.925 25.232, 52 25.232 C 50.075 25.232, 49.288 25.438, 50.250 25.689 M 200.250 25.728 C 202.313 25.944, 205.688 25.944, 207.750 25.728 C 209.813 25.513, 208.125 25.336, 204 25.336 C 199.875 25.336, 198.188 25.513, 200.250 25.728 M 223.232 51.250 L 223.465 77.500 223.749 51.779 L 224.034 26.058 237.267 25.747 L 250.500 25.437 236.750 25.218 L 223 25 223.232 51.250 M 295.250 25.728 C 297.313 25.944, 300.688 25.944, 302.750 25.728 C 304.813 25.513, 303.125 25.336, 299 25.336 C 294.875 25.336, 293.188 25.513, 295.250 25.728 M 334.750 25.740 C 338.188 25.936, 343.813 25.936, 347.250 25.740 C 350.688 25.545, 347.875 25.385, 341 25.385 C 334.125 25.385, 331.313 25.545, 334.750 25.740 M 213.787 29 C 214.029 30.650, 214.401 32, 214.613 32 C 214.826 32, 215 30.650, 215 29 C 215 27.350, 214.628 26, 214.173 26 C 213.718 26, 213.545 27.350, 213.787 29 M 355 26.714 C 355.825 27.020, 357.400 27.684, 358.500 28.190 C 360.468 29.096, 360.469 29.085, 358.559 27.555 C 357.491 26.700, 355.916 26.036, 355.059 26.079 C 353.712 26.147, 353.704 26.234, 355 26.714 M 123.946 32.750 L 120.500 36.500 124.250 33.054 C 127.740 29.846, 128.460 29, 127.696 29 C 127.529 29, 125.842 30.688, 123.946 32.750 M 260.638 31.500 C 262.950 35.448, 263 35.507, 263 34.277 C 263 33.697, 262.073 32.159, 260.941 30.861 L 258.881 28.500 260.638 31.500 M 33.924 32.750 L 31.500 35.500 34.250 33.076 C 36.820 30.810, 37.459 30, 36.674 30 C 36.495 30, 35.258 31.238, 33.924 32.750 M 276.924 32.750 L 274.500 35.500 277.250 33.076 C 278.762 31.742, 280 30.505, 280 30.326 C 280 29.541, 279.190 30.180, 276.924 32.750 M 308.195 33.500 C 308.215 35.150, 308.439 35.704, 308.693 34.731 C 308.947 33.758, 308.930 32.408, 308.656 31.731 C 308.382 31.054, 308.175 31.850, 308.195 33.500 M 339.196 40.250 L 339.392 47.500 339.742 40.750 L 340.091 34 344.611 34 C 347.097 34, 350.114 34.475, 351.316 35.055 C 353.426 36.074, 353.434 36.057, 351.559 34.555 C 350.351 33.587, 347.613 33, 344.309 33 L 339 33 339.196 40.250 M 364.272 38 C 364.272 40.475, 364.467 41.487, 364.706 40.250 C 364.944 39.013, 364.944 36.987, 364.706 35.750 C 364.467 34.513, 364.272 35.525, 364.272 38 M 142.250 35.689 C 143.213 35.941, 144.787 35.941, 145.750 35.689 C 146.713 35.438, 145.925 35.232, 144 35.232 C 142.075 35.232, 141.287 35.438, 142.250 35.689 M 236.418 40.745 C 236.499 46.433, 236.535 46.501, 239.500 46.593 C 242.230 46.678, 242.257 46.650, 239.798 46.283 C 237.300 45.911, 237.067 45.469, 236.716 40.435 L 236.336 34.990 236.418 40.745 M 302.269 36.693 C 303.242 36.947, 304.592 36.930, 305.269 36.656 C 305.946 36.382, 305.150 36.175, 303.500 36.195 C 301.850 36.215, 301.296 36.439, 302.269 36.693 M 28.162 39.543 C 26.487 43.220, 26.807 44.005, 28.618 40.662 C 29.464 39.100, 29.969 37.636, 29.741 37.407 C 29.512 37.179, 28.802 38.140, 28.162 39.543 M 133.924 39.750 L 131.500 42.500 134.250 40.076 C 136.820 37.810, 137.459 37, 136.674 37 C 136.495 37, 135.258 38.237, 133.924 39.750 M 287.924 39.750 L 285.500 42.500 288.500 40 C 290.150 38.625, 291.688 37.388, 291.917 37.250 C 292.146 37.112, 291.887 37, 291.341 37 C 290.795 37, 289.258 38.237, 287.924 39.750 M 352.921 40.249 C 352.623 42.399, 352.776 43.624, 353.279 43.121 C 353.762 42.638, 353.995 40.951, 353.798 39.372 C 353.468 36.728, 353.399 36.798, 352.921 40.249 M 1 38.885 C 1 39.782, 4.005 41.328, 4.598 40.736 C 4.769 40.564, 4.030 39.875, 2.955 39.204 C 1.880 38.532, 1 38.389, 1 38.885 M 35.553 38.915 C 35.231 39.436, 35.394 40.125, 35.915 40.447 C 36.436 40.769, 37.125 40.606, 37.447 40.085 C 37.769 39.564, 37.606 38.875, 37.085 38.553 C 36.564 38.231, 35.875 38.394, 35.553 38.915 M 192.073 40.635 C 190.933 42.084, 190.014 43.772, 190.030 44.385 C 190.047 44.998, 190.560 44.600, 191.170 43.500 C 191.781 42.400, 192.962 40.712, 193.795 39.750 C 194.628 38.788, 195.048 38, 194.728 38 C 194.407 38, 193.212 39.186, 192.073 40.635 M 249.136 40.193 C 249.059 41.729, 248.045 43.556, 246.777 44.443 C 245.555 45.299, 245.035 46, 245.623 46 C 247.642 46, 250.167 42.197, 249.717 39.832 C 249.308 37.689, 249.261 37.718, 249.136 40.193 M 383.768 38.725 C 385.565 38.947, 388.265 38.943, 389.768 38.715 C 391.271 38.486, 389.800 38.304, 386.500 38.310 C 383.200 38.315, 381.971 38.502, 383.768 38.725 M 432.762 38.707 C 434.006 38.946, 435.806 38.937, 436.762 38.687 C 437.718 38.437, 436.700 38.241, 434.500 38.252 C 432.300 38.263, 431.518 38.468, 432.762 38.707 M 412.419 58 C 412.419 68.725, 412.566 73.112, 412.746 67.750 C 412.925 62.387, 412.925 53.612, 412.746 48.250 C 412.566 42.887, 412.419 47.275, 412.419 58 M 421 42.559 C 421 44.516, 421.375 45.886, 421.833 45.603 C 422.621 45.116, 422.208 39, 421.387 39 C 421.174 39, 421 40.602, 421 42.559 M 38.553 40.915 C 38.231 41.436, 38.394 42.125, 38.915 42.447 C 39.436 42.769, 40.125 42.606, 40.447 42.085 C 40.769 41.564, 40.606 40.875, 40.085 40.553 C 39.564 40.231, 38.875 40.394, 38.553 40.915 M 153.810 41.500 C 154.316 42.600, 154.980 44.175, 155.286 45 C 155.766 46.296, 155.853 46.288, 155.921 44.941 C 155.964 44.084, 155.300 42.509, 154.445 41.441 C 152.915 39.531, 152.904 39.532, 153.810 41.500 M 102.195 43.500 C 102.215 45.150, 102.439 45.704, 102.693 44.731 C 102.947 43.758, 102.930 42.408, 102.656 41.731 C 102.382 41.054, 102.175 41.850, 102.195 43.500 M 55 46.059 C 55 48.310, 54.585 49.862, 54.069 49.543 C 53.557 49.226, 52.813 49.494, 52.415 50.138 C 51.988 50.828, 52.123 51.042, 52.741 50.660 C 54.967 49.284, 55.938 57.662, 53.800 59.800 C 52.867 60.733, 52.867 61, 53.800 61 C 54.505 61, 55 62.444, 55 64.500 L 55 68 29.083 68 C 12.381 68, 2.986 67.636, 2.658 66.975 C 2.379 66.411, 2.266 66.524, 2.408 67.225 C 2.610 68.220, 8.475 68.500, 29.083 68.500 L 55.500 68.500 55.723 55.250 C 55.846 47.962, 55.734 42, 55.473 42 C 55.213 42, 55 43.827, 55 46.059 M 0.195 45.500 C 0.215 47.150, 0.439 47.704, 0.693 46.731 C 0.947 45.758, 0.930 44.408, 0.656 43.731 C 0.382 43.054, 0.175 43.850, 0.195 45.500 M 373.150 45.750 C 372.994 49.140, 374.247 49.846, 377 47.919 C 378.185 47.090, 378.042 46.997, 376.321 47.479 C 374.510 47.987, 374.070 47.617, 373.721 45.295 C 373.320 42.638, 373.292 42.661, 373.150 45.750 M 15 45 C 16.235 45.798, 16.250 45.972, 15.083 45.985 C 14.304 45.993, 13.902 46.236, 14.190 46.524 C 14.478 46.811, 15.491 46.749, 16.441 46.384 C 17.810 45.859, 17.891 45.546, 16.834 44.876 C 16.100 44.411, 15.050 44.031, 14.500 44.031 C 13.950 44.031, 14.175 44.467, 15 45 M 258.924 46.750 L 256.500 49.500 259.250 47.076 C 260.762 45.742, 262 44.505, 262 44.326 C 262 43.541, 261.190 44.180, 258.924 46.750 M 130.310 51.500 C 130.315 54.800, 130.502 56.029, 130.725 54.232 C 130.947 52.435, 130.943 49.735, 130.715 48.232 C 130.486 46.729, 130.304 48.200, 130.310 51.500 M 175.336 53 C 175.336 57.125, 175.513 58.813, 175.728 56.750 C 175.944 54.688, 175.944 51.313, 175.728 49.250 C 175.513 47.188, 175.336 48.875, 175.336 53 M 189.310 51.500 C 189.315 54.800, 189.502 56.029, 189.725 54.232 C 189.947 52.435, 189.943 49.735, 189.715 48.232 C 189.486 46.729, 189.304 48.200, 189.310 51.500 M 380.269 46.693 C 381.242 46.947, 382.592 46.930, 383.269 46.656 C 383.946 46.382, 383.150 46.175, 381.500 46.195 C 379.850 46.215, 379.296 46.439, 380.269 46.693 M 49.553 47.915 C 49.231 48.436, 49.394 49.125, 49.915 49.447 C 50.436 49.769, 51.125 49.606, 51.447 49.085 C 51.769 48.564, 51.606 47.875, 51.085 47.553 C 50.564 47.231, 49.875 47.394, 49.553 47.915 M 77.272 51 C 77.272 53.475, 77.467 54.487, 77.706 53.250 C 77.944 52.013, 77.944 49.987, 77.706 48.750 C 77.467 47.513, 77.272 48.525, 77.272 51 M 156.272 51 C 156.272 53.475, 156.467 54.487, 156.706 53.250 C 156.944 52.013, 156.944 49.987, 156.706 48.750 C 156.467 47.513, 156.272 48.525, 156.272 51 M 425.405 49.250 L 423.500 51.500 426 49.511 C 427.375 48.417, 428.688 47.404, 428.917 47.261 C 429.146 47.117, 428.878 47, 428.322 47 C 427.765 47, 426.453 48.013, 425.405 49.250 M 116.232 52 C 116.232 53.925, 116.438 54.712, 116.689 53.750 C 116.941 52.788, 116.941 51.212, 116.689 50.250 C 116.438 49.288, 116.232 50.075, 116.232 52 M 29.250 50.662 C 28.491 50.969, 28.063 52.803, 28.160 55.333 C 28.314 59.352, 28.334 59.376, 28.716 56 C 28.934 54.075, 29.848 51.938, 30.747 51.250 C 32.378 50.003, 31.620 49.706, 29.250 50.662 M 269.195 53.500 C 269.215 55.150, 269.439 55.704, 269.693 54.731 C 269.947 53.758, 269.930 52.408, 269.656 51.731 C 269.382 51.054, 269.175 51.850, 269.195 53.500 M 362.086 53.618 C 363.414 55.333, 364.701 56.557, 364.947 56.338 C 365.193 56.119, 364.106 54.716, 362.533 53.220 L 359.672 50.500 362.086 53.618 M 436.392 64 C 436.392 71.425, 436.549 74.463, 436.742 70.750 C 436.934 67.037, 436.934 60.962, 436.742 57.250 C 436.549 53.538, 436.392 56.575, 436.392 64 M 446.349 60 C 446.349 64.675, 446.522 66.588, 446.732 64.250 C 446.943 61.912, 446.943 58.087, 446.732 55.750 C 446.522 53.412, 446.349 55.325, 446.349 60 M 339.199 61.750 L 339.397 69.500 339.741 62.305 L 340.085 55.111 344.293 54.730 L 348.500 54.349 343.750 54.175 L 339 54 339.199 61.750 M 0.195 57.500 C 0.215 59.150, 0.439 59.704, 0.693 58.731 C 0.947 57.758, 0.930 56.408, 0.656 55.731 C 0.382 55.054, 0.175 55.850, 0.195 57.500 M 236.193 61.250 L 236 68 241.250 67.820 L 246.500 67.640 241.796 67.267 L 237.093 66.894 236.739 60.697 L 236.385 54.500 236.193 61.250 M 242.269 55.693 C 243.242 55.947, 244.592 55.930, 245.269 55.656 C 245.946 55.382, 245.150 55.175, 243.500 55.195 C 241.850 55.215, 241.296 55.439, 242.269 55.693 M 102.195 59.500 C 102.215 61.150, 102.439 61.704, 102.693 60.731 C 102.947 59.758, 102.930 58.408, 102.656 57.731 C 102.382 57.054, 102.175 57.850, 102.195 59.500 M 365.252 61.500 C 365.263 63.700, 365.468 64.482, 365.707 63.238 C 365.946 61.994, 365.937 60.194, 365.687 59.238 C 365.437 58.282, 365.241 59.300, 365.252 61.500 M 465.160 68.250 C 465.323 77.655, 465.719 76.534, 466.222 65.248 C 466.375 61.810, 466.163 58.997, 465.750 58.998 C 465.337 58.999, 465.072 63.163, 465.160 68.250 M 388.250 60.689 C 389.212 60.941, 390.788 60.941, 391.750 60.689 C 392.712 60.438, 391.925 60.232, 390 60.232 C 388.075 60.232, 387.288 60.438, 388.250 60.689 M 288.220 63.533 C 289.716 65.106, 291.119 66.193, 291.338 65.947 C 291.557 65.701, 290.333 64.414, 288.618 63.086 L 285.500 60.672 288.220 63.533 M 271 63.642 C 271 64.179, 271.700 65.491, 272.555 66.559 C 274.022 68.389, 274.042 68.357, 272.920 66 C 271.462 62.939, 271 62.372, 271 63.642 M 29.638 65.500 C 29.955 66.325, 30.602 67, 31.076 67 C 31.549 67, 31.678 66.325, 31.362 65.500 C 31.045 64.675, 30.398 64, 29.924 64 C 29.451 64, 29.322 64.675, 29.638 65.500 M 177 64.723 C 177 65.303, 177.927 66.841, 179.059 68.139 L 181.119 70.500 179.362 67.500 C 177.050 63.552, 177 63.493, 177 64.723 M 263 65.799 C 263 66.421, 261.554 68.634, 259.787 70.715 C 256.907 74.108, 256.864 74.241, 259.379 72 C 262.543 69.180, 264.449 66.116, 263.581 65.248 C 263.261 64.928, 263 65.176, 263 65.799 M 306.600 65.765 C 307.205 66.169, 307.957 67.175, 308.271 68 C 308.653 69.002, 308.868 68.753, 308.921 67.250 C 308.974 65.738, 308.426 65.005, 307.250 65.015 C 306.171 65.025, 305.922 65.312, 306.600 65.765 M 370.232 68 C 370.232 69.925, 370.438 70.713, 370.689 69.750 C 370.941 68.787, 370.941 67.213, 370.689 66.250 C 370.438 65.287, 370.232 66.075, 370.232 68 M 389.139 68.033 C 387.841 69.115, 387.209 70, 387.734 70 C 388.260 70, 389.505 69.100, 390.500 68 C 392.787 65.473, 392.195 65.487, 389.139 68.033 M 123 71.500 C 124.292 72.875, 125.574 74, 125.849 74 C 126.124 74, 125.292 72.875, 124 71.500 C 122.708 70.125, 121.426 69, 121.151 69 C 120.876 69, 121.708 70.125, 123 71.500 M 214.195 71.500 C 214.215 73.150, 214.439 73.704, 214.693 72.731 C 214.947 71.758, 214.930 70.408, 214.656 69.731 C 214.382 69.054, 214.175 69.850, 214.195 71.500 M 360.924 71.750 L 358.500 74.500 361.250 72.076 C 362.762 70.742, 364 69.505, 364 69.326 C 364 68.541, 363.190 69.180, 360.924 71.750 M 7.728 70.722 C 9.503 70.943, 12.653 70.946, 14.728 70.730 C 16.802 70.513, 15.350 70.333, 11.500 70.328 C 7.650 70.324, 5.952 70.501, 7.728 70.722 M 446.252 73.500 C 446.263 75.700, 446.468 76.482, 446.707 75.238 C 446.946 73.994, 446.937 72.194, 446.687 71.238 C 446.437 70.282, 446.241 71.300, 446.252 73.500 M 97.144 74.750 C 96.053 77.300, 96.078 77.359, 97.484 75.559 C 98.318 74.491, 99 73.254, 99 72.809 C 99 71.289, 98.322 71.999, 97.144 74.750 M 309.079 73.677 C 309.036 74.874, 308.212 76.059, 307.250 76.311 C 305.610 76.739, 305.612 76.775, 307.281 76.884 C 309.221 77.010, 310.494 74.827, 309.673 72.783 C 309.390 72.077, 309.122 72.480, 309.079 73.677 M 371 72.881 C 371 73.856, 374.888 77.494, 375.307 76.911 C 375.469 76.685, 374.566 75.504, 373.301 74.286 C 372.035 73.068, 371 72.436, 371 72.881 M 42.024 75.474 C 39.787 77.855, 39.151 77.960, 25.100 78.253 L 10.500 78.558 25.063 78.779 L 39.626 79 42.500 76 C 44.081 74.350, 45.143 73, 44.861 73 C 44.579 73, 43.303 74.113, 42.024 75.474 M 391.415 74.138 C 390.981 74.840, 391.123 75.042, 391.770 74.642 C 392.363 74.276, 393.055 74.769, 393.308 75.738 C 393.719 77.313, 393.780 77.321, 393.884 75.809 C 394.029 73.689, 392.381 72.574, 391.415 74.138 M 283 76 C 283.825 76.533, 285.175 76.945, 286 76.914 C 286.989 76.878, 286.819 76.567, 285.500 76 C 282.751 74.819, 281.172 74.819, 283 76 M 195.762 77.707 C 197.006 77.946, 198.806 77.937, 199.762 77.687 C 200.718 77.437, 199.700 77.241, 197.500 77.252 C 195.300 77.263, 194.518 77.468, 195.762 77.707 M 203.750 77.706 C 204.988 77.944, 207.012 77.944, 208.250 77.706 C 209.488 77.467, 208.475 77.272, 206 77.272 C 203.525 77.272, 202.512 77.467, 203.750 77.706 M 233.280 77.736 C 235.909 77.943, 239.959 77.940, 242.280 77.731 C 244.601 77.521, 242.450 77.352, 237.500 77.355 C 232.550 77.358, 230.651 77.530, 233.280 77.736 M 289.762 77.707 C 291.006 77.946, 292.806 77.937, 293.762 77.687 C 294.718 77.437, 293.700 77.241, 291.500 77.252 C 289.300 77.263, 288.518 77.468, 289.762 77.707 M 297.750 77.706 C 298.988 77.944, 301.012 77.944, 302.250 77.706 C 303.488 77.467, 302.475 77.272, 300 77.272 C 297.525 77.272, 296.512 77.467, 297.750 77.706 M 337.250 77.728 C 339.313 77.944, 342.688 77.944, 344.750 77.728 C 346.813 77.513, 345.125 77.336, 341 77.336 C 336.875 77.336, 335.188 77.513, 337.250 77.728 M 44.250 79.689 C 45.212 79.941, 46.788 79.941, 47.750 79.689 C 48.712 79.438, 47.925 79.232, 46 79.232 C 44.075 79.232, 43.288 79.438, 44.250 79.689 M 11.750 80.723 C 13.538 80.945, 16.462 80.945, 18.250 80.723 C 20.038 80.502, 18.575 80.320, 15 80.320 C 11.425 80.320, 9.962 80.502, 11.750 80.723 M 31.750 81.723 C 33.538 81.945, 36.462 81.945, 38.250 81.723 C 40.038 81.502, 38.575 81.320, 35 81.320 C 31.425 81.320, 29.962 81.502, 31.750 81.723 M 51.776 82.733 C 54.128 82.945, 57.728 82.942, 59.776 82.727 C 61.824 82.512, 59.900 82.339, 55.500 82.343 C 51.100 82.346, 49.424 82.522, 51.776 82.733 M 41.500 83.978 C 22.736 84.304, 14.069 84.741, 18.359 85.144 C 27.684 86.019, 83 84.911, 83 83.850 C 83 83.382, 80.412 83.102, 77.250 83.228 C 74.088 83.353, 58 83.690, 41.500 83.978 M 87.453 88.250 L 83.500 92.500 87.750 88.547 C 91.702 84.871, 92.460 84, 91.703 84 C 91.540 84, 89.627 85.912, 87.453 88.250 M 52.250 86.728 C 54.313 86.944, 57.688 86.944, 59.750 86.728 C 61.813 86.513, 60.125 86.336, 56 86.336 C 51.875 86.336, 50.188 86.513, 52.250 86.728 M 71.250 87.716 C 72.763 87.945, 75.237 87.945, 76.750 87.716 C 78.263 87.487, 77.025 87.300, 74 87.300 C 70.975 87.300, 69.737 87.487, 71.250 87.716 M 80 94.089 C 77.846 95.851, 77.804 95.986, 79.694 95.062 C 80.901 94.472, 82.165 93.542, 82.503 92.995 C 83.406 91.534, 82.800 91.799, 80 94.089 M 44.269 102.693 C 45.242 102.947, 46.592 102.930, 47.269 102.656 C 47.946 102.382, 47.150 102.175, 45.500 102.195 C 43.850 102.215, 43.296 102.439, 44.269 102.693 M 56.250 102.689 C 57.212 102.941, 58.788 102.941, 59.750 102.689 C 60.712 102.438, 59.925 102.232, 58 102.232 C 56.075 102.232, 55.288 102.438, 56.250 102.689" stroke="none" fill="#f47370" fill-rule="evenodd"/><path d="M 43.347 1.095 C 37.795 2.022, 27.341 5.640, 26.559 6.904 C 26.296 7.330, 29.927 11.969, 34.627 17.213 L 43.174 26.748 47.337 25.792 C 60.273 22.820, 75.507 33.859, 77.584 47.710 C 78.943 56.777, 74.230 66.923, 65.833 73.006 C 59.111 77.875, 53.168 79.250, 36 79.907 L 20.500 80.500 51.750 81.899 C 68.938 82.668, 83 83.681, 83 84.149 C 83 84.617, 72.988 85.067, 60.750 85.150 L 38.500 85.300 56 86.118 C 83.239 87.391, 81.904 87.668, 47.691 87.840 C 28.472 87.937, 16.109 88.367, 16.454 88.926 C 18.016 91.452, 30.082 98.271, 36.380 100.187 C 44.668 102.708, 55.746 103.066, 64 101.081 C 89.264 95.003, 106.439 68.851, 102.043 43.152 C 98.343 21.517, 80.722 4.074, 59.500 1.040 C 51.542 -0.097, 50.461 -0.094, 43.347 1.095 M 16.443 14.427 C 9.577 20.920, 9.149 19.890, 22.464 28.898 L 31.429 34.963 33.964 32.635 C 35.359 31.354, 37.493 29.647, 38.706 28.840 C 40.878 27.396, 40.770 27.231, 31.619 18.119 L 22.326 8.864 16.443 14.427 M 456 49.500 L 456 77 460.500 77 L 465 77 465 68 C 465 63.050, 465.337 59.017, 465.750 59.039 C 466.163 59.060, 468.975 63.093, 472 68 L 477.500 76.922 483.250 76.961 C 486.413 76.983, 489 76.799, 489 76.554 C 489 76.309, 485.895 71.721, 482.100 66.357 L 475.200 56.605 481.600 48.409 C 485.120 43.901, 488 39.940, 488 39.606 C 488 39.273, 485.570 39, 482.599 39 L 477.199 39 471.349 47.127 L 465.500 55.253 465.226 38.627 L 464.952 22 460.476 22 L 456 22 456 49.500 M 5.472 29.281 C 1.068 38.899, 0.989 38.758, 13.500 43.674 C 19.550 46.052, 24.837 47.998, 25.250 47.999 C 25.663 47.999, 26.012 47.212, 26.026 46.250 C 26.041 45.288, 26.859 42.705, 27.844 40.511 L 29.635 36.522 19.372 30.261 C 13.728 26.817, 8.835 24, 8.499 24 C 8.164 24, 6.801 26.376, 5.472 29.281 M 134.018 26.892 C 120.644 31.669, 114.024 46.616, 118.543 61.833 C 121.667 72.353, 129.560 77.500, 142.571 77.500 C 156.260 77.500, 166.310 69.433, 169.058 56.240 C 171.473 44.641, 166.980 33.026, 158.201 28.173 C 152.172 24.840, 141.365 24.268, 134.018 26.892 M 191.807 27.480 C 186.257 29.548, 182.100 32.997, 179.190 37.951 C 177.012 41.658, 176.512 43.913, 176.196 51.451 C 175.843 59.873, 176.016 60.880, 178.706 65.992 C 181.102 70.544, 182.537 71.965, 187.087 74.292 C 191.843 76.725, 193.723 77.100, 201.165 77.100 C 211.588 77.100, 215.335 76.315, 214.560 74.295 C 214.252 73.493, 214 71.373, 214 69.584 L 214 66.331 206.250 66.727 C 199.688 67.063, 197.993 66.805, 195.190 65.040 C 189.423 61.410, 187.189 51.271, 190.440 43.490 C 192.771 37.910, 197.150 35.836, 205.788 36.219 C 212.546 36.519, 213.116 36.386, 213.616 34.392 C 213.913 33.209, 214.009 30.950, 213.828 29.371 L 213.500 26.500 204.500 26.302 C 198.849 26.178, 194.126 26.617, 191.807 27.480 M 224 51.500 L 224 77 235.318 77 C 249.407 77, 255.605 75.353, 259.891 70.471 C 263.509 66.351, 264.461 63.271, 263.576 58.554 C 262.991 55.433, 258.204 50, 256.041 50 C 255.598 50, 256.982 48.253, 259.118 46.118 C 263.473 41.762, 264.119 38.065, 261.434 32.872 C 258.675 27.537, 253.522 26.047, 237.750 26.022 L 224 26 224 51.500 M 286.759 27.423 C 281.287 29.376, 278.322 31.573, 275.036 36.109 C 269.589 43.629, 268.650 57.473, 273.008 66.016 C 276.891 73.627, 284.377 77.174, 296.424 77.111 C 306.890 77.056, 309.003 76.389, 308.986 73.142 C 308.953 66.620, 308.506 66.274, 300.674 66.704 C 292.385 67.160, 289.654 66.094, 286.280 61.088 C 284.515 58.469, 284 56.302, 284 51.500 C 284 46.698, 284.515 44.531, 286.280 41.912 C 289.604 36.980, 292.394 35.875, 300.646 36.225 L 307.793 36.528 308.391 32.161 C 308.721 29.758, 308.741 27.390, 308.436 26.897 C 307.583 25.516, 290.971 25.920, 286.759 27.423 M 329 51.500 L 329 77 339.250 76.994 C 351.630 76.988, 356.076 75.874, 360.723 71.615 C 363.677 68.908, 364.339 67.526, 364.754 63.204 C 365.325 57.262, 363.759 54.040, 358.845 51.052 C 355.991 49.317, 355.930 49.157, 357.873 48.540 C 361.197 47.485, 364 42.677, 364 38.030 C 364 28.655, 359.072 26.054, 341.250 26.022 L 329 26 329 51.500 M 38.994 34.120 L 34.687 37.239 44.594 43.643 L 54.500 50.047 54.816 45.852 C 55.114 41.891, 54.815 41.360, 49.452 36.328 C 46.328 33.398, 43.666 31, 43.536 31 C 43.406 31, 41.362 32.404, 38.994 34.120 M 339 40 L 339 47 343.865 47 C 350.004 47, 354 44.212, 354 39.927 C 354 35.240, 350.928 33, 344.500 33 L 339 33 339 40 M 138.071 36.698 C 132.875 39.429, 130.693 43.096, 130.199 49.931 C 129.696 56.875, 132.396 63.803, 136.449 65.973 C 142.260 69.083, 151.659 66.493, 154.500 61 C 161.933 46.627, 150.725 30.047, 138.071 36.698 M 236.200 40.750 L 236.500 46.500 241.332 46.331 C 246.743 46.142, 250 43.951, 250 40.500 C 250 36.899, 246.934 35, 241.121 35 L 235.900 35 236.200 40.750 M 33.084 40.398 C 31.839 41.899, 28.752 49.103, 29.191 49.483 C 29.661 49.890, 53.857 59, 54.467 59 C 54.760 59, 55 57.505, 55 55.678 C 55 52.549, 54.392 51.971, 44.563 45.750 C 36.508 40.652, 33.888 39.430, 33.084 40.398 M 376.279 40.111 C 373.309 40.970, 373.106 41.293, 373.673 44.271 C 374.455 48.379, 374.256 48.233, 377.426 47.028 C 378.913 46.463, 382.319 46, 384.994 46 C 390.391 46, 393 47.759, 393 51.399 C 393 53.392, 392.222 53.798, 386.300 54.889 C 382.615 55.568, 378.401 56.832, 376.935 57.697 C 370.838 61.299, 369.018 70.109, 373.455 74.545 C 377.880 78.971, 389.826 77.562, 392.920 72.250 C 393.764 70.800, 393.944 71.058, 393.970 73.750 C 393.999 76.931, 394.096 77, 398.500 77 L 403 77 402.944 63.250 C 402.876 46.895, 401.900 43.199, 397 40.752 C 393.143 38.825, 381.929 38.478, 376.279 40.111 M 413 58 L 413 77 417.500 77 L 422 77 422.002 66.250 C 422.003 58.019, 422.413 54.680, 423.752 52.001 C 426.881 45.740, 434.050 44.370, 436.057 49.651 C 436.576 51.014, 437 57.726, 437 64.565 L 437 77 441.500 77 L 446 77 446 62.468 C 446 42.561, 444.351 39, 435.131 39 C 429.919 39, 426.499 40.359, 423.462 43.636 L 421 46.292 421 42.646 C 421 39.059, 420.935 39, 417 39 L 413 39 413 58 M 0.593 47.011 C 0.001 51.474, 1.167 62.665, 2.617 66.446 C 3.136 67.796, 6.610 68, 29.107 68 L 55 68 55 64.598 C 55 60.837, 56.056 61.463, 40.500 56.015 C 36.100 54.474, 31.712 52.892, 30.750 52.500 C 29.250 51.888, 29 52.378, 29 55.925 C 29 58.202, 29.652 61.625, 30.449 63.532 C 31.246 65.439, 31.539 67, 31.101 67 C 29.857 67, 26.669 59.248, 26.054 54.729 L 25.500 50.653 13.370 46.390 L 1.241 42.127 0.593 47.011 M 339 61.375 C 339 68.622, 339.048 68.759, 341.750 69.292 C 350.613 71.039, 357.566 64.663, 354.021 58.039 C 352.804 55.765, 347.922 54, 342.851 54 L 339 54 339 61.375 M 236 61.500 L 236 68 241.045 68 C 245.069 68, 246.588 67.503, 248.545 65.545 C 249.895 64.195, 251 62.375, 251 61.500 C 251 60.625, 249.895 58.805, 248.545 57.455 C 246.588 55.497, 245.069 55, 241.045 55 L 236 55 236 61.500 M 385.500 60.719 C 380.349 61.974, 378.095 67.910, 381.979 69.989 C 386.263 72.282, 393 67.621, 393 62.365 C 393 60.424, 392.508 60.021, 390.250 60.116 C 388.738 60.180, 386.600 60.451, 385.500 60.719 M 4 71.151 C 4 71.509, 5.575 72.732, 7.500 73.867 C 9.425 75.003, 11 76.398, 11 76.966 C 11 77.630, 16.130 78, 25.326 78 C 39.313 78, 39.707 77.941, 42 75.500 L 44.349 73 32.874 73 C 25.907 73, 20.971 72.571, 20.307 71.907 C 19.147 70.747, 3.999 70.045, 4 71.151" stroke="none" fill="#ec2220" fill-rule="evenodd"/></svg>